<svg width="82" height="89" xmlns="http://www.w3.org/2000/svg"><g id="Artboard" fill="none" fill-rule="evenodd"><g id="Group" fill="#FFB26D" fill-rule="nonzero"><path d="M28.8 49.2c-.7-.2-1.4 0-1.9.4-.3 0-.5.1-.8.3-.8.4-1.3 1.3-1.6 2.1-.5 1.9.8 3.9 2.7 4.3 1.8.3 3.7-.7 4.2-2.6.5-2-.8-4-2.6-4.5zm25.3 7c1.8.3 3.7-.7 4.2-2.6.5-1.9-.8-3.9-2.7-4.4-.7-.2-1.4 0-1.9.4-.3 0-.5.1-.8.3-.8.4-1.3 1.3-1.6 2.1-.5 1.8.9 3.8 2.8 4.2z" id="Shape"/><path d="M55.7 4.1C41-2.8 23.6 1.4 13.8 14.2 8.2 21.5 5.1 31.8 5 41.1c-1.2.2-2.4.5-3.5.9-.9.3-1.1 1.8 0 2 .6.2 1.2.3 1.9.4-1.5 3.7-2.1 8.2-1.4 11.8.8 4.6 5.9 8 10.2 6.5C13.9 72.8 18.9 82 29 86.4c6.9 3 15.3 3.3 22.4.7 7.3-2.6 12.1-8.1 15.2-15 1.1-2.5 2-5 2.8-7.6 2.7.7 6-1.5 7.4-4.1 2.1-3.8 2.6-8.8 1.7-13.2.2 0 .4 0 .7.1 3.5.4 3.5-5.1 0-5.4-.5-.1-1.1-.1-1.6-.2C78.7 26 70.1 10.9 55.7 4.1zM11.5 58.8c-1.4-.2-2.7-.6-3.6-2-.8-1.2-.6-2.5-.5-3.8.2-2.6.8-5.5 2.1-7.9h2.4c-.6 4.4-.8 9.1-.4 13.7zm53.6-.2c-.9 4.4-2.2 8.8-4.3 12.8-3.9 7.7-10.7 12-19.5 12.1-9.3.1-17-4.6-21.5-12.7-4.4-8-3.3-17.1-4.7-25.8 1.4 0 2.8-.1 4.2-.1 6.8 0 13.7 0 20.5.1 8.8.2 17.6.5 26.4 1.1-.4 4.3-.3 8.3-1.1 12.5zM39.8 40.1c-6.7-.1-13.3-.1-20 .1-3.5.1-7.1.1-10.6.4 1-4.1 1.3-8.3 2.6-12.3 1.5-4.7 3.9-9.3 7.2-13C25 8.7 33.6 5 42.5 5.5c18.2 1 30.9 18.5 29.8 35.9-10.8-.9-21.7-1.2-32.5-1.3zM74.3 55c-.3 1.4-2.2 7-4.3 6.4.2-.8.4-1.5.5-2.3.8-3.8 1.8-8.4 1.6-12.4.5 0 .9.1 1.4.1 1.3 2.5 1.3 5.5.8 8.2z" id="Shape"/><path d="M31.8 70.9c2.9 8.7 14.5 7.3 18.9.9 2.1-2.9-2.6-5.5-4.7-2.8-3.4 4.4-7.9 2.5-11.6-.2-1.2-.9-3.1.7-2.6 2.1z" id="Shape"/></g></g></svg>