<svg width="42" height="49" xmlns="http://www.w3.org/2000/svg"><title>Shape</title><g id="Page-1" fill="none" fill-rule="evenodd"><g id="01-classificados" transform="translate(-553 -1371)" fill="#23DFBD" fill-rule="nonzero"><path d="M592.6 1373.929c-1.6.197-3.2.263-4.8.263-4.133 0-8.133-1.382-11.667-2.633-.466-.197-.933-.329-1.4-.46-.466-.132-1-.132-1.4 0-.466.131-.933.329-1.4.46-3.533 1.25-7.533 2.633-11.666 2.633-1.6 0-3.267-.066-4.8-.263a2.37 2.37 0 0 0-1.734.526c-.466.395-.733.988-.733 1.646v23.167c0 11.518 19.267 20.205 20.133 20.535.267.131.6.197.867.197.333 0 .6-.066.867-.197.8-.395 20.133-9.017 20.133-20.535v-23.167c0-.593-.267-1.185-.733-1.646a2.214 2.214 0 0 0-1.667-.526zm-2 25.339c0 6.845-11.267 13.624-16.6 16.19-5.333-2.566-16.6-9.345-16.6-16.19v-20.798c.933.066 1.867.066 2.867.066 4.866 0 9.466-1.58 13.133-2.83.2-.066.467-.132.667-.198.2.066.466.132.666.198 3.667 1.25 8.2 2.83 13.134 2.83.933 0 1.933 0 2.866-.066v20.798h-.133zm-16.838 5.447c-.871 0-1.64-.11-2.307-.33-.668-.219-1.22-.524-1.654-.915a4.506 4.506 0 0 1-1.062-1.452 7.032 7.032 0 0 1-.574-1.862 13.79 13.79 0 0 1-.165-2.24v-7.056c0-.879.057-1.658.17-2.337.115-.68.306-1.31.575-1.892.268-.582.62-1.06 1.056-1.435.435-.374.984-.667 1.647-.879.664-.211 1.435-.317 2.314-.317 1.009 0 1.871.134 2.588.403.716.268 1.281.663 1.696 1.184.415.52.717 1.13.904 1.825.187.696.28 1.507.28 2.435v1.734h-3.552v-1.722c0-1.009-.053-1.688-.158-2.038-.212-.684-.729-1.05-1.55-1.099h-.196c-.31 0-.58.037-.812.11-.232.073-.421.19-.567.348a2.192 2.192 0 0 0-.354.507c-.09.179-.157.413-.202.701a7.796 7.796 0 0 0-.085.8c-.013.244-.019.553-.019.928v8.57c0 1.187.149 2.034.446 2.538.297.505.828.757 1.593.757.26 0 .49-.03.69-.092.199-.06.366-.138.5-.232.134-.093.248-.227.342-.402.093-.175.165-.338.214-.489.048-.15.085-.36.11-.628.024-.269.038-.497.042-.684.004-.187.006-.443.006-.769v-1.807h3.552v1.66c0 .757-.052 1.437-.158 2.04a6.415 6.415 0 0 1-.543 1.696 4.028 4.028 0 0 1-.995 1.318c-.407.35-.928.625-1.563.824-.635.2-1.371.3-2.21.3z" id="Shape"/></g></g></svg>