<svg width="57" height="45" xmlns="http://www.w3.org/2000/svg"><title>Shape</title><g id="Page-1" fill="none" fill-rule="evenodd"><g id="01-classificados" transform="translate(-404 -1369)" fill="#BE8AFF" fill-rule="nonzero"><path d="M453.606 1403.71l-.001-13.1a7.225 7.225 0 0 1 2.444 1.856c2.288 2.676 2.3 6.677.023 9.364a7.256 7.256 0 0 1-2.466 1.88zm-42.212-13.101v13.105a7.007 7.007 0 0 1-2.466-1.886c-2.279-2.684-2.265-6.687.023-9.363a7.235 7.235 0 0 1 2.443-1.856zm8.102 15.27v-17.45h-2.966v17.45h2.966zm26.008-17.45v17.45h2.966v-17.45h-2.966zm7.897-1.328C451.907 1376.77 442.965 1369 432.5 1369s-19.409 7.771-20.902 18.1a10.453 10.453 0 0 0-5.1 3.267c-3.316 3.88-3.335 9.656-.03 13.549 2.39 2.817 5.357 3.578 8.153 3.864v-17.888c.123-9.737 8.137-17.652 17.879-17.652s17.755 7.915 17.877 17.654l.001 16.683a3.858 3.858 0 0 1-1.314 1.37c-.984.626-2.33 1.03-3.859 1.047h-6.386v-1.784h-9.537v6.143h9.537v-1.827h6.416c1.996-.025 3.8-.56 5.19-1.445 1.054-.672 1.877-1.578 2.396-2.717a10.465 10.465 0 0 0 5.713-3.448c3.304-3.894 3.287-9.67-.03-13.55a10.473 10.473 0 0 0-5.103-3.265z" id="Shape"/></g></g></svg>